<svg width="31" height="31" viewBox="0 0 31 31" fill="none" xmlns="http://www.w3.org/2000/svg">
<path d="M9.99209 25.3212L18.9259 16.244C19.1218 16.046 19.2317 15.7786 19.2317 15.5C19.2317 15.2214 19.1218 14.9541 18.9259 14.756L9.99403 5.67691C9.79819 5.47763 9.68846 5.20941 9.68846 4.93001C9.68846 4.65061 9.79819 4.38238 9.99403 4.1831C10.0897 4.08497 10.204 4.00698 10.3303 3.95373C10.4566 3.90048 10.5923 3.87305 10.7293 3.87305C10.8664 3.87305 11.002 3.90048 11.1283 3.95373C11.2546 4.00698 11.3689 4.08497 11.4646 4.1831L20.3965 13.2584C20.9834 13.8561 21.3122 14.6604 21.3122 15.4981C21.3122 16.3358 20.9834 17.1401 20.3965 17.7378L11.4646 26.8131C11.3689 26.9115 11.2544 26.9898 11.128 27.0432C11.0015 27.0966 10.8656 27.1241 10.7283 27.1241C10.5911 27.1241 10.4552 27.0966 10.3287 27.0432C10.2023 26.9898 10.0878 26.9115 9.99209 26.8131C9.79626 26.6138 9.68652 26.3456 9.68652 26.0662C9.68652 25.7868 9.79626 25.5186 9.99209 25.3193" fill="#C6C6C6"/>
</svg>
