<svg width="31" height="31" viewBox="0 0 31 31" fill="none" xmlns="http://www.w3.org/2000/svg">
<path d="M21.0089 25.3212L12.0751 16.244C11.8791 16.046 11.7692 15.7786 11.7692 15.5C11.7692 15.2214 11.8791 14.9541 12.0751 14.756L21.0069 5.67691C21.2028 5.47763 21.3125 5.20941 21.3125 4.93001C21.3125 4.65061 21.2028 4.38238 21.0069 4.1831C20.9113 4.08497 20.7969 4.00698 20.6707 3.95373C20.5444 3.90048 20.4087 3.87305 20.2717 3.87305C20.1346 3.87305 19.999 3.90048 19.8727 3.95373C19.7464 4.00698 19.6321 4.08497 19.5364 4.1831L10.6045 13.2584C10.0176 13.8561 9.68876 14.6604 9.68876 15.4981C9.68876 16.3358 10.0176 17.1401 10.6045 17.7378L19.5364 26.8131C19.6321 26.9115 19.7465 26.9898 19.873 27.0432C19.9995 27.0966 20.1354 27.1241 20.2726 27.1241C20.4099 27.1241 20.5458 27.0966 20.6723 27.0432C20.7987 26.9898 20.9132 26.9115 21.0089 26.8131C21.2047 26.6138 21.3145 26.3456 21.3145 26.0662C21.3145 25.7868 21.2047 25.5186 21.0089 25.3193" fill="#C6C6C6"/>
</svg>
