<svg width="1097" height="615" viewBox="0 0 1097 615" fill="none" xmlns="http://www.w3.org/2000/svg">
<path d="M219.922 542.071C219.569 542.946 218.177 543.718 215.745 544.388C213.379 545.211 211.082 544.919 208.855 543.51C206.869 541.818 205.214 539.624 203.888 536.928C202.562 534.231 200.934 530.396 199.004 525.421C197.645 519.661 196.184 511.953 194.62 502.296C193.055 492.64 191.298 481.888 189.348 470.042C187.486 457.977 185.526 445.682 183.468 433.157C182.57 427.201 181.723 422.22 180.927 418.212C180.284 414.139 179.726 411.117 179.251 409.146C178.865 406.956 178.672 405.861 178.672 405.861C178.649 406.233 178.549 406.638 178.372 407.075C178.349 407.447 178.326 407.819 178.303 408.191C178.279 408.563 178.256 408.935 178.233 409.307C178.233 409.307 178.154 409.974 177.996 411.308C177.992 412.577 177.699 414.874 177.119 418.199C176.673 420.561 176.434 423.197 176.402 426.108C176.37 429.018 175.897 433.021 174.982 438.117C174.481 443.762 173.966 450.227 173.437 457.513C172.909 464.798 172.319 470.661 171.669 475.102C171.312 477.245 170.933 479.126 170.534 480.744C170.288 482.297 170.174 483.522 170.193 484.419C170.295 486.367 170.177 488.862 169.839 491.903C169.5 494.943 168.898 498.005 168.034 501.088C167.7 502.859 167.156 504.991 166.403 507.483C165.804 509.91 165.293 512.119 164.87 514.109C164.383 515.946 164.139 516.864 164.139 516.864C164.223 517.915 163.844 519.796 163.003 522.506C162.162 525.217 161.035 528.321 159.622 531.817C158.298 535.095 156.832 538.253 155.224 541.289C151.677 547.864 148.368 552.437 145.295 555.009C142.376 557.516 137.91 557.872 131.898 556.079C128.862 554.471 126.209 552.7 123.94 550.766C121.605 548.679 119.494 545.411 117.605 540.962C115.717 536.513 113.846 529.974 111.994 521.345C110.919 515.826 109.79 509.968 108.608 503.771C107.579 497.508 106.648 491.476 105.815 485.673C104.917 479.718 104.19 474.594 103.636 470.303C103.17 465.793 102.842 462.673 102.651 460.944C101.483 456.913 100.713 454.886 100.341 454.863C99.9042 454.686 99.4953 455.856 99.1145 458.371C98.7569 460.514 98.2603 464.89 97.6246 471.497C96.989 478.104 96.3605 485.794 95.7392 494.567C95.2713 503.276 94.8802 511.952 94.5657 520.595C93.2248 534.925 92.0672 546.913 91.0927 556.561C90.1182 566.209 89.2596 573.997 88.5169 579.925C87.709 585.7 87.0264 590.063 86.4691 593.016C86.1303 596.056 85.7727 598.2 85.3963 599.446C85.2385 600.78 85.0713 601.666 84.8947 602.103C82.5283 602.927 80.078 602.699 77.5439 601.421C75.0097 600.143 72.6196 598.351 70.3734 596.046C69.4154 594.642 68.5015 593.128 67.6317 591.506C66.762 589.883 66.1339 587.977 65.7476 585.788C65.4495 583.379 65.3932 580.687 65.5786 577.712C65.8799 572.876 66.3649 568.687 67.0337 565.144C67.7025 561.601 68.1368 559.425 68.3366 558.616C68.6478 557.216 68.7731 555.805 68.7124 554.383C68.6516 552.96 68.4701 551.679 68.1676 550.54C68.544 549.294 68.8806 546.888 69.1775 543.322C69.6277 539.69 69.9803 535.829 70.2352 531.737C70.616 529.222 71.1314 525.744 71.7814 521.304C72.3664 516.71 73.007 511.821 73.7034 506.637C74.3347 501.299 74.8219 496.475 75.1651 492.165C76.7709 477.18 78.0378 465.235 78.9659 456.332C79.8289 447.274 80.6809 441.39 81.5219 438.68C82.2703 437.457 82.5721 435.608 82.4275 433.135C82.3712 430.443 82.4219 428.43 82.5797 427.095C82.9041 421.888 83.5542 417.448 84.5298 413.775C85.5938 409.883 86.9696 407.579 88.6572 406.862C89.8845 406.341 91.614 406.15 93.8458 406.289C96.2309 406.363 98.7022 406.853 101.26 407.76C103.794 409.038 106.468 411.071 109.281 413.86C112.183 416.431 114.313 420.596 115.672 426.357C116.56 428.876 117.447 432.031 118.331 435.82C119.15 439.456 119.969 443.091 120.788 446.727C121.607 450.363 122.198 453.461 122.561 456.023C124.264 463.448 125.684 470.631 126.819 477.572C128.044 484.295 129.149 490.525 130.136 496.262C131.123 501.999 132.079 507.025 133.005 511.34C133.866 515.501 134.664 518.874 135.399 521.459C136.288 523.978 137.278 525.459 138.371 525.901C138.896 525.859 139.445 525.445 140.017 524.659C140.677 523.654 141.107 522.748 141.306 521.939C141.706 520.321 142.029 518.735 142.275 517.182C142.521 515.629 142.867 513.672 143.313 511.31C144.335 506.893 145.303 502.136 146.218 497.04C147.221 491.726 148.294 485.295 149.436 477.749C150.667 469.984 152.002 460.546 153.441 449.433C154.815 438.168 156.428 424.266 158.28 407.727C159.529 400.86 160.625 394.058 161.568 387.321C162.51 380.583 163.667 375.204 165.037 371.182C166.297 367.75 168.777 365.702 172.478 365.036C176.332 364.305 180.368 364.856 184.585 366.687C188.802 368.518 192.009 371.593 194.204 375.911C195.269 377.994 196.437 382.025 197.708 388.004C199.066 393.764 200.335 400.378 201.512 407.844C202.69 415.311 203.573 422.722 204.16 430.077C204.807 432.881 205.505 436.658 206.254 441.41C207.004 446.161 207.709 451.022 208.37 455.992C209.032 460.962 209.574 465.44 209.998 469.424C211.138 475.096 211.976 479.629 212.511 483.023C213.2 486.352 214.391 490.011 216.084 494C215.745 497.04 216.323 500.96 217.816 505.758C219.31 510.556 221.098 515.409 223.182 520.319C225.108 526.562 225.595 531.335 224.642 534.636C223.843 537.872 223.104 539.544 222.426 539.651C221.003 539.712 220.169 540.518 219.922 542.071ZM273.207 517.552C271.417 516.321 269.12 516.028 266.316 516.675C263.513 517.322 259.491 518.938 254.252 521.524C252.234 522.743 249.945 523.534 247.383 523.897C244.821 524.26 242.59 524.121 240.688 523.48C238.786 522.839 237.728 521.839 237.514 520.482C236.886 518.575 238.187 515.669 241.418 511.763C244.648 507.857 249.53 504.427 256.061 501.473L265.629 497.141L265.977 491.561C265.874 489.613 265.553 487.577 265.013 485.452C264.627 483.262 264.222 480.175 263.798 476.191C263.5 473.782 263.15 470.4 262.75 466.044C262.349 461.687 261.927 457.068 261.484 452.186C260.977 447.151 260.511 442.641 260.087 438.657C259.663 434.672 259.312 431.925 259.032 430.414C259.06 428.772 258.927 426.113 258.633 422.435C258.274 418.604 257.839 414.806 257.327 411.04C256.903 407.056 256.519 404.231 256.174 402.567C255.019 388.754 254.045 379.208 253.254 373.932C252.397 368.501 251.629 365.84 250.951 365.947C250.337 366.207 248.912 366.903 246.676 368.033C244.44 369.163 242.006 370.468 239.375 371.947C236.678 373.272 234.321 374.544 232.304 375.763C230.286 376.981 229.112 377.842 228.782 378.344C228.471 379.744 227.102 380.144 224.675 379.544C222.183 378.792 220.381 377.746 219.269 376.407C218.53 375.091 217.976 373.787 217.609 372.495C217.241 371.202 217.343 370.163 217.915 369.377C218.598 368.001 220.399 366.06 223.319 363.553C226.173 360.893 229.476 358.224 233.227 355.545C237.132 352.801 240.751 350.45 244.085 348.492C246.562 347.078 248.943 345.434 251.225 343.56C253.442 341.532 255.058 339.579 256.071 337.701C257.256 336.654 258.398 335.717 259.495 334.889C260.745 333.996 262.093 333.334 263.539 332.901C265.092 333.147 267.326 332.651 270.241 331.414C273.309 330.112 276.499 328.667 279.809 327.081C288.074 322.667 294.188 320.434 298.149 320.383C302.199 320.112 305.216 320.823 307.202 322.515C309.207 325.104 310.095 327.624 309.868 330.074C309.575 332.371 308.092 333.996 305.419 334.95C304.169 335.843 302.381 336.964 300.057 338.313C297.667 339.508 294.511 341.029 290.587 342.876C280.852 348.094 275.862 351.48 275.615 353.033C275.262 353.907 274.986 354.749 274.786 355.558C274.74 356.301 274.572 357.187 274.284 358.215C274.698 358.763 275.096 360.767 275.478 364.226C275.948 367.467 276.286 371.035 276.491 374.931C276.724 377.186 277.009 380.415 277.344 384.618C277.68 388.821 278.004 393.21 278.316 397.785C278.717 402.141 279.064 406.158 279.358 409.836C279.586 413.36 279.698 415.757 279.694 417.026C279.666 418.668 279.781 420.43 280.037 422.313C280.381 423.977 280.639 425.225 280.812 426.058C281.855 434.487 282.684 441.558 283.299 447.272C284.067 452.921 284.728 457.891 285.282 462.183C285.771 466.32 286.304 470.349 286.882 474.268C287.394 478.034 287.948 482.326 288.544 487.142C288.544 487.142 289.815 486.512 292.358 485.252C294.836 483.838 298.004 482.131 301.863 480.131C308.748 476.303 313.462 473.759 316.005 472.498C318.548 471.238 320.18 470.817 320.901 471.235C321.556 471.5 322.407 472.225 323.454 473.41C328.28 476.25 329.515 479.8 327.159 484.059C324.956 488.253 319.526 492.097 310.87 495.59C303.022 499.284 297.213 502.021 293.443 503.802C289.891 505.672 287.676 507.065 286.798 507.981C285.919 508.897 285.708 509.892 286.163 510.966C287.359 513.356 286.443 515.464 283.417 517.292C280.609 519.208 277.206 519.295 273.207 517.552ZM379.972 478.48C373.682 481.15 367.473 482.518 361.345 482.584C355.282 482.804 350.14 479.646 345.917 473.109C344.442 469.209 343.586 466.766 343.349 465.78C343.2 464.576 343.585 463.779 344.506 463.388C345.12 463.127 345.547 462.855 345.789 462.572C346.119 462.069 346.056 461.281 345.6 460.207C344.647 457.534 343.728 454.303 342.844 450.514C342.048 446.506 341.459 442.773 341.077 439.314C340.783 435.636 340.836 432.988 341.236 431.37C340.854 427.911 340.367 423.139 339.775 417.053C339.184 410.967 338.571 404.618 337.937 398.007C337.392 391.177 336.845 384.982 336.295 379.421C335.899 373.795 335.661 369.823 335.581 367.503C335.502 365.183 335.557 361.9 335.747 357.655C335.871 353.257 335.719 349.7 335.291 346.985C335.063 343.461 334.813 339.674 334.543 335.624C334.207 331.421 334.153 328.095 334.38 325.644L335.362 317.08L326.902 314.424C323.842 313.188 321.857 311.496 320.945 309.348C319.903 306.894 320.481 304.204 322.68 301.279C325.032 298.289 328.072 295.641 331.801 293.334C333.204 292.376 334.904 291.473 336.898 290.627C339.046 289.715 341.04 288.868 342.881 288.087C347.33 286.198 351.845 284.463 356.424 282.882C361.003 281.3 364.848 280.121 367.958 279.344C369.776 278.934 372.217 278.713 375.281 278.68C378.345 278.646 381.397 278.799 384.438 279.138C387.479 279.477 389.797 280.032 391.392 280.803C391.392 280.803 391.829 280.98 392.703 281.333C393.512 281.533 394.223 281.503 394.837 281.242C395.953 281.312 398.313 282.392 401.916 284.484C405.674 286.51 409.517 288.953 413.446 291.811C417.31 294.516 420.124 297.306 421.886 300.178C423.323 302.284 424.705 304.686 426.03 307.382C427.444 309.86 428.607 312.173 429.519 314.32C430.928 318.068 432.196 321.694 433.322 325.199C434.601 328.64 435.78 332.484 436.86 336.734C437.898 340.458 438.714 344.728 439.31 349.545C439.995 354.143 440.493 358.729 440.806 363.304C441.206 367.661 441.391 371.294 441.359 374.205C441.48 377.05 441.387 378.538 441.081 378.668C440.16 379.059 439.721 379.517 439.763 380.042C439.805 380.568 439.956 381.137 440.216 381.751C440.714 383.35 440.759 386.228 440.351 390.385C439.877 394.388 439.074 398.894 437.94 403.901C436.742 408.755 435.292 413.445 433.591 417.969C432.044 422.428 430.368 425.946 428.565 428.522C425.935 435.975 421.949 443.008 416.608 449.621C411.333 456.387 405.404 462.253 398.821 467.22C392.392 472.122 386.109 475.875 379.972 478.48ZM375.859 452.795C377.394 452.144 379.816 451.025 383.126 449.439C386.524 447.634 389.134 445.893 390.957 444.214C394.248 441.73 397.85 437.847 401.764 432.565C405.613 427.129 408.773 421.351 411.246 415.232C413.918 408.304 416.064 401.418 417.686 394.574C419.242 387.576 419.875 378.617 419.584 367.695C419.587 360.451 418.791 353.457 417.195 346.711C415.752 339.9 413.956 333.963 411.807 328.9C407.965 319.848 403.184 313.277 397.465 309.187C391.68 304.943 385.68 302.964 379.463 303.248C376.99 303.393 374.538 303.8 372.106 304.47C369.609 304.987 367.287 305.701 365.139 306.613C363.605 307.264 362.027 308.025 360.404 308.894C358.935 309.699 358.036 310.352 357.706 310.855C356.478 311.376 355.619 313.189 355.126 316.295C354.788 319.336 354.786 322.958 355.122 327.161C355.457 331.364 355.837 335.457 356.261 339.442C356.922 344.412 357.302 348.505 357.4 351.723C357.433 354.787 357.499 357.927 357.597 361.145C357.695 364.362 358.052 368.828 358.667 374.542C358.277 379.596 358.227 384.596 358.516 389.543C358.894 394.272 359.306 398.442 359.753 402.054C360.135 405.514 360.356 407.954 360.417 409.377C360.278 411.609 360.453 414.794 360.942 418.932C361.519 422.851 362.227 427.077 363.065 431.61C364.056 436.078 364.994 440.206 365.878 443.996C366.915 447.72 367.825 450.502 368.606 452.343C369.127 453.57 370.099 454.154 371.522 454.093C372.879 453.879 374.325 453.446 375.859 452.795ZM480.42 419.275C478.672 418.569 476.893 417.151 475.084 415.022C473.428 412.828 472.014 410.35 470.842 407.588C469.758 404.608 469.286 402.003 469.425 399.771C469.606 398.064 469.471 396.04 469.019 393.696C468.503 391.2 467.898 388.922 467.205 386.862C466.348 381.432 465.657 375.75 465.13 369.818C464.692 363.667 464.167 357.1 463.557 350.116C462.737 340.506 461.989 332.133 461.313 324.996C460.638 317.859 460.092 311.029 459.677 304.506C459.197 297.83 458.894 290.716 458.766 283.166C458.901 282.203 458.971 281.088 458.975 279.818C459.068 278.33 459.007 276.908 458.793 275.55C458.667 273.974 458.332 272.758 457.788 271.903C457.206 269.253 456.973 266.998 457.089 265.138C457.293 263.06 457.572 261.584 457.925 260.709C458.766 257.999 459.923 255.606 461.397 253.532C462.805 251.305 464.253 250.238 465.741 250.33C468.149 250.032 470.907 250.129 474.012 250.622C477.207 250.895 480.592 252.899 484.168 256.631C485.675 257.621 487.137 258.721 488.555 259.929C489.908 260.984 491.129 262.367 492.218 264.078C493.306 265.789 494.206 268.123 494.918 271.08C498.243 277.635 502.018 284.18 506.241 290.716C510.617 297.188 513.889 303.403 516.057 309.363C517.164 311.971 518.629 315.423 520.453 319.719C522.276 324.015 524.165 328.464 526.118 333.066C528.16 337.45 530.051 341.265 531.79 344.51C533.618 347.536 535.123 349.161 536.304 349.384C536.676 349.407 536.992 349.725 537.252 350.339C537.448 350.799 537.622 350.997 537.776 350.932C537.929 350.867 537.899 350.155 537.684 348.798C537.559 347.221 537.24 344.55 536.727 340.785C536.345 337.325 536.5 333.638 537.192 329.723C537.973 325.59 537.728 320.534 536.457 314.555C536.303 308.646 536.025 303.513 535.624 299.156C535.377 294.735 535.02 290.269 534.555 285.759C534.089 281.249 533.658 276.182 533.261 270.556C532.982 269.045 532.803 267.129 532.723 264.809C532.732 262.271 532.785 259.623 532.882 256.866C532.914 253.955 533.12 251.242 533.501 248.727C533.733 245.007 534.086 241.146 534.559 237.143C535.032 233.14 535.139 230.831 534.878 230.217C534.878 230.217 534.716 229.834 534.39 229.067C533.999 228.146 533.98 227.249 534.334 226.375C534.84 225.436 535.544 224.322 536.446 223.034C537.348 221.746 537.606 220.007 537.219 217.817C537.726 216.878 538.825 215.415 540.517 213.43C542.209 211.444 543.876 210.465 545.517 210.493C546.763 210.869 548.042 211.322 549.353 211.852C550.818 212.316 552.062 213.327 553.085 214.885C554.261 216.377 554.92 218.994 555.06 222.737C555.967 226.154 556.449 229.209 556.505 231.901C556.65 234.374 556.599 236.388 556.353 237.941C556.391 239.735 556.482 241.869 556.626 244.343C556.859 246.598 556.95 248.732 556.9 250.745C557.458 253.767 557.866 256.219 558.122 258.102C558.531 259.92 558.866 261.136 559.127 261.75C559.127 261.75 558.915 262.745 558.493 264.735C558.223 266.659 557.887 269.066 557.483 271.953C557.679 278.388 557.978 283.783 558.379 288.14C558.714 292.343 559.008 296.02 559.26 299.173C559.511 302.325 559.795 305.554 560.112 308.859C560.364 312.012 560.504 315.754 560.533 320.088C561.291 322.301 561.754 324.458 561.922 326.559C562.025 328.507 561.953 330.258 561.707 331.811C561.461 333.364 561.27 334.622 561.136 335.584C560.936 336.393 560.836 336.798 560.836 336.798C559.736 344.869 559.01 352.329 558.658 359.178C558.24 365.873 557.897 370.183 557.628 372.108C557.382 373.661 557.038 374.984 556.597 376.077C556.09 377.016 555.518 377.802 554.881 378.434C554.333 378.848 553.708 379.294 553.006 379.774C552.457 380.187 551.723 380.59 550.802 380.98C548.171 382.46 545.281 382.69 542.133 381.673C538.92 380.502 535.263 378.071 531.162 374.38C525.991 369.876 520.475 363.707 514.615 355.874C508.844 347.822 503.721 338.952 499.246 329.264C498.725 328.036 498.139 326.656 497.488 325.121C496.837 323.587 496.109 322.086 495.304 320.617C494.653 319.082 494.023 317.811 493.413 316.802C492.893 315.575 491.59 312.506 489.506 307.597C487.422 302.688 484.729 296.77 481.427 289.843C481.191 294.831 481.543 300.566 482.483 307.048C483.424 313.529 484.287 320.042 485.074 326.588C485.796 332.981 485.721 338.988 484.848 344.61C485.843 347.808 486.555 350.765 486.984 353.48C487.412 356.195 487.71 358.604 487.878 360.705C488.134 362.588 488.118 364.043 487.83 365.071C488.058 368.595 488.668 372.591 489.659 377.059C490.804 381.462 491.493 384.791 491.726 387.046C492.377 388.58 492.861 391 493.178 394.305C493.583 397.393 493.944 400.589 494.261 403.895C494.512 407.047 494.734 409.488 494.925 411.217C494.939 413.384 494.177 415.427 492.638 417.348C491.1 419.268 489.191 420.531 486.913 421.136C484.635 421.741 482.471 421.121 480.42 419.275ZM631.564 372.772C629.685 371.759 627.377 371.652 624.638 372.452C621.9 373.253 617.944 375.023 612.769 377.762C610.752 378.981 608.462 379.771 605.9 380.135C603.339 380.498 601.03 380.391 598.975 379.815C596.92 379.239 595.753 378.195 595.473 376.684C594.845 374.778 595.763 372.035 598.227 368.454C600.778 364.655 605.288 361.202 611.754 358.095L621.357 353.205L621.607 347.395C621.351 345.512 620.955 342.874 620.419 339.48C620.038 336.021 619.558 332.331 618.981 328.412C618.683 326.004 618.191 322.5 617.507 317.902C616.976 313.239 616.424 308.313 615.851 303.125C615.278 297.936 614.747 293.273 614.258 289.135C613.769 284.997 613.309 282.205 612.876 280.759C612.903 279.118 612.673 276.228 612.184 272.091C611.695 267.953 611.173 263.738 610.619 259.447C610 255.002 609.518 251.948 609.174 250.283C607.492 236.512 606.147 226.944 605.137 221.578C604.062 216.06 603.217 213.431 602.604 213.691C601.99 213.952 600.565 214.647 598.329 215.777C596.093 216.908 593.615 218.322 590.896 220.019C588.264 221.498 585.972 222.924 584.02 224.296C582.002 225.514 580.905 226.342 580.729 226.779C580.417 228.179 579.146 228.809 576.914 228.67C574.682 228.531 572.934 227.824 571.669 226.551C570.93 225.235 570.137 223.58 569.29 221.586C568.597 219.526 568.459 218.136 568.878 217.415C569.561 216.039 571.439 214.065 574.512 211.493C577.738 208.856 581.38 206.133 585.438 203.324C589.432 200.362 593.062 197.825 596.331 195.713C598.808 194.299 601.156 192.579 603.373 190.551C605.526 188.37 607.032 186.373 607.891 184.559C609.012 183.36 610.12 182.346 611.217 181.518C612.468 180.625 613.816 179.962 615.262 179.53C616.75 179.622 618.951 179.05 621.866 177.813C624.869 176.357 627.993 174.759 631.238 173.02C639.374 168.299 645.139 165.671 648.533 165.135C651.861 164.447 654.812 165.639 657.383 168.711C659.323 171.147 660.486 173.46 660.872 175.65C661.347 177.621 660.247 179.084 657.574 180.037C656.389 181.084 654.02 182.542 650.468 184.412C647.07 186.216 643.441 188.118 639.583 190.118C634.627 192.946 631.238 195.2 629.416 196.878C627.682 198.339 626.792 199.441 626.745 200.185C626.392 201.059 626.116 201.9 625.916 202.709C625.87 203.453 625.702 204.339 625.414 205.367C625.982 205.85 626.533 207.789 627.068 211.183C627.604 214.577 628.083 218.266 628.507 222.25C628.74 224.505 629.09 227.888 629.555 232.397C629.956 236.754 630.378 241.373 630.82 246.255C631.417 251.071 631.926 255.472 632.35 259.456C632.709 263.287 632.886 265.838 632.882 267.107C633.008 268.683 633.199 270.413 633.455 272.296C633.799 273.96 634.134 275.176 634.46 275.943C636.238 286.957 637.595 296.339 638.531 304.089C639.556 311.621 640.44 318.398 641.185 324.418C642.019 330.221 642.95 336.253 643.979 342.516C643.979 342.516 645.787 341.658 649.404 339.941C653.109 338.006 656.826 335.885 660.554 333.579C665.598 330.532 669.348 328.488 671.802 327.446C674.41 326.339 676.228 325.93 677.256 326.218C678.372 326.287 679.125 326.782 679.516 327.703C679.995 328.405 680.692 329.195 681.608 330.074C686.523 332.695 688.221 335.414 686.701 338.232C685.335 340.985 680.421 344.338 671.96 348.292C664.243 352.292 658.148 355.422 653.676 357.683C649.422 360.031 646.395 361.859 644.596 363.166C642.951 364.408 642.279 365.598 642.582 366.737C642.907 367.504 642.652 368.608 641.815 370.05C641.044 371.645 639.737 372.833 637.896 373.614C636.209 374.331 634.098 374.05 631.564 372.772ZM719.896 329.302C714.451 327.992 709.373 324.987 704.662 320.288C700.04 315.37 696.763 310.423 694.833 305.449C690.642 296.002 687.241 285.858 684.631 275.016C682.174 264.109 680.547 253.664 679.75 243.682C679.4 237.312 679.171 230.801 679.062 224.148C678.954 217.494 679.053 211.115 679.359 205.011C679.599 198.753 680.121 193.371 680.925 188.865C682.229 178.715 684.294 170.144 687.119 163.151C690.098 156.092 692.566 151.242 694.523 148.601C697.907 144.63 702.363 140.837 707.89 137.224C713.353 133.457 719.182 130.982 725.38 129.8C729.825 129.181 734.388 129.054 739.07 129.421C743.905 129.722 748.399 130.711 752.551 132.389C754.89 133.207 756.878 134.264 758.515 135.561C760.152 136.858 761.361 138.427 762.142 140.268C763.119 142.569 762.99 145.249 761.753 148.309C760.517 151.369 758.758 153.835 756.475 155.71C754.193 157.584 752.003 157.97 749.906 156.869C746.609 154.647 743.715 153.16 741.222 152.407C738.665 151.501 736.226 151.087 733.906 151.167C731.763 150.809 729.234 151.249 726.319 152.486C723.557 153.659 720.794 155.465 718.028 157.907C715.197 160.195 712.845 163.185 710.972 166.877C710.288 168.253 709.385 170.176 708.26 172.645C707.289 175.049 706.327 177.902 705.374 181.203C704.51 184.286 703.897 187.533 703.535 190.946C702.235 199.827 701.614 208.6 701.671 217.267C701.817 225.715 702.563 234.723 703.908 244.291C704.332 248.275 705.037 253.136 706.024 258.873C706.946 264.457 707.944 270.008 709.019 275.527C710.248 280.981 711.523 285.69 712.844 289.656C714.663 295.221 716.607 299.375 718.677 302.117C720.746 304.86 723.236 306.247 726.147 306.279C728.992 306.158 732.412 304.616 736.405 301.654C740.003 299.04 743.341 295.813 746.418 291.972C749.583 287.912 752.367 283.381 754.77 278.377C757.108 273.221 758.801 267.613 759.851 261.555C760.398 255.166 760.604 249.466 760.468 244.454C760.486 239.377 759.974 235.611 758.932 233.156C757.978 230.483 756.153 229.809 753.457 231.135C747.232 233.958 742.071 235.877 737.975 236.892C734.033 237.841 730.85 237.381 728.427 235.513C726.238 235.899 724.447 234.667 723.057 231.818C721.819 228.903 722.267 225.906 724.401 222.828C726.423 220.34 729.67 217.966 734.142 215.705C738.615 213.445 743.359 211.612 748.375 210.207C753.48 208.583 757.848 207.996 761.479 208.447C765.571 208.702 768.947 210.256 771.607 213.11C774.355 215.746 776.511 218.905 778.074 222.587C779.79 226.204 781.025 229.753 781.779 233.236C782.677 239.191 782.974 245.222 782.668 251.326C782.516 257.366 781.552 263.84 779.778 270.75C778.844 274.948 777.132 279.659 774.641 284.88C772.15 290.102 769.266 295.038 765.989 299.688C762.93 304.426 759.842 308.453 756.722 311.769C751.758 317.135 746.161 321.865 739.932 325.958C733.856 329.985 727.177 331.1 719.896 329.302ZM837.643 291.814C837.643 291.814 836.549 292.008 834.359 292.394C832.388 292.868 830.821 293.443 829.659 294.117C827.009 294.699 824 294.437 820.634 293.331C817.333 292.379 815.391 290.577 814.809 287.927C815.163 287.053 814.993 285.586 814.3 283.527C813.76 281.402 813.229 279.726 812.708 278.499C812.648 277.076 812.564 276.025 812.457 275.346C812.35 274.668 812.082 272.971 811.654 270.256C810.853 267.517 809.937 263.651 808.904 258.658C807.959 253.446 806.96 247.895 805.908 242.005C804.791 235.961 803.805 230.223 802.948 224.793C802.18 219.144 801.54 214.437 801.027 210.671C800.669 206.84 800.622 204.597 800.887 203.941C800.887 203.941 800.789 203.711 800.594 203.251C800.333 202.637 799.996 202.056 799.582 201.507C799.582 201.507 799.366 200.784 798.933 199.338C798.589 197.674 798.53 195.617 798.757 193.166C798.655 191.218 798.333 189.182 797.794 187.057C797.407 184.867 797.084 183.466 796.824 182.852C797.112 181.824 797.097 179.658 796.78 176.352C796.552 172.828 796.323 169.304 796.095 165.78C795.82 162.999 795.557 160.033 795.305 156.881C795.207 153.663 795.118 150.895 795.038 148.575C795.047 146.036 795.052 144.767 795.052 144.767C794.791 144.153 794.661 143.846 794.661 143.846C794.596 143.693 794.563 143.616 794.563 143.616C794.763 142.807 794.732 139.108 794.47 132.52C794.362 125.867 794.305 117.201 794.298 106.521C794.39 105.033 794.495 103.359 794.611 101.499C794.88 99.5746 794.884 98.3053 794.624 97.6916C794.87 96.1387 795.99 94.9389 797.985 94.0923C799.979 93.2458 802.246 92.8269 804.784 92.8357C807.258 92.691 809.236 93.2997 810.719 94.6617L817.575 96.097L816.882 116.217C816.557 121.425 816.41 126.195 816.438 130.528C816.402 134.708 816.514 137.105 816.775 137.719C816.775 137.719 816.858 138.769 817.026 140.871C817.194 142.972 817.436 145.676 817.753 148.982C818.158 152.069 818.563 155.156 818.968 158.243C819.518 163.804 819.786 168.488 819.773 172.296C819.913 176.038 820.114 178.217 820.374 178.83C820.244 178.523 821.757 177.61 824.914 176.089C828.005 174.414 831.897 172.491 836.587 170.319C841.367 167.928 846.255 165.581 851.253 163.279C856.338 160.758 860.811 158.497 864.669 156.497C868.681 154.432 871.389 152.921 872.793 151.963L883.846 145.37L880.675 122.544C879.861 117.639 878.995 111.76 878.077 104.907C877.314 97.9892 876.678 92.0125 876.17 86.9773C875.257 78.855 875.498 72.5968 876.892 68.2029C878.22 63.6555 879.805 60.9911 881.646 60.2096C884.254 59.1025 886.781 59.2973 889.227 60.7939C891.673 62.2906 893.463 63.5223 894.598 64.4892C897.244 65.1768 898.946 66.627 899.704 68.84C900.616 70.9878 900.702 74.3912 899.964 79.05C899.574 84.104 899.655 89.4113 900.204 94.9719C900.907 100.467 901.297 105.01 901.372 108.599C902.307 110.375 902.804 111.974 902.865 113.397C902.861 114.666 902.714 115.815 902.426 116.842C902.25 117.279 902.125 118.69 902.051 121.076C902.13 123.396 902.21 125.716 902.289 128.036C902.522 130.291 902.736 131.648 902.931 132.108C903.541 133.117 903.973 134.563 904.23 136.446C904.42 138.176 904.339 139.477 903.986 140.352C904.224 141.337 904.696 143.943 905.403 148.169C906.046 152.242 906.751 157.103 907.52 162.752C908.376 168.182 909.123 173.568 909.761 178.91C910.553 184.187 910.986 188.62 911.061 192.21C911.67 193.218 911.95 194.729 911.899 196.743C911.783 198.602 912.062 200.113 912.737 201.276C912.905 203.377 913.147 206.081 913.464 209.386C913.869 212.474 914.311 214.368 914.79 215.07C915.674 218.859 916.491 223.129 917.24 227.881C917.99 232.633 918.665 236.782 919.265 240.329C919.866 243.877 920.264 245.881 920.459 246.341C920.259 247.15 918.911 247.813 916.414 248.329C914.136 248.934 912.023 249.288 910.075 249.391C906.444 248.94 903.21 247.507 900.373 245.089C897.755 242.761 896.464 239.506 896.501 235.326C896.747 233.774 896.288 230.347 895.125 225.047C894.115 219.682 893.137 214.393 892.193 209.181C891.983 206.555 891.48 203.237 890.684 199.23C889.888 195.222 889.016 191.247 888.067 187.304C887.271 183.297 886.549 179.891 885.903 177.088C885.409 174.219 885.251 172.566 885.427 172.129C885.167 171.516 884.939 170.979 884.744 170.518C884.548 170.058 884.451 169.828 884.451 169.828C884.013 169.651 882.261 170.214 879.192 171.517C876.059 172.666 872.224 174.294 867.686 176.401C863.149 178.508 858.37 180.899 853.349 183.573C848.481 186.182 843.986 188.815 839.862 191.47C838.24 192.34 836.048 193.361 833.286 194.533C830.525 195.706 828.563 196.629 827.401 197.303C825.713 198.02 824.288 198.715 823.126 199.389C822.052 199.845 821.515 200.073 821.515 200.073C821.557 200.599 821.748 202.328 822.088 205.262C822.428 208.195 822.919 211.699 823.562 215.771C824.139 219.691 824.781 223.764 825.489 227.99C826.197 232.216 826.851 236.103 827.451 239.65C828.14 242.979 828.733 245.443 829.231 247.042C829.943 249.999 830.75 253.821 831.653 258.507C832.491 263.04 833.285 267.682 834.034 272.434C834.937 277.12 835.689 281.237 836.289 284.785C837.108 288.42 837.56 290.764 837.643 291.814ZM983.025 215.709C980.654 217.802 978.188 219.03 975.626 219.393C973.064 219.756 970.583 218.818 968.184 216.577C966.003 214.425 964.068 210.72 962.379 205.462C960.779 199.985 959.743 192.639 959.271 183.424C959.146 181.848 958.894 178.696 958.516 173.967C958.227 169.02 957.896 163.548 957.523 157.55C957.15 151.553 956.863 145.971 956.662 140.806C956.614 135.575 956.769 131.888 957.127 129.745C957.154 128.104 956.973 126.823 956.582 125.902C956.345 124.917 956.096 124.117 955.835 123.503C955.51 122.736 955.393 121.609 955.486 120.121C955.667 118.414 955.771 116.741 955.799 115.099C955.915 113.24 955.942 111.598 955.881 110.176C955.909 108.534 955.727 107.254 955.337 106.333C955.337 106.333 955.167 104.866 954.827 101.932C954.422 98.8454 954.084 95.277 953.813 91.2274C953.543 87.1779 953.686 83.6768 954.244 80.7244C954.127 76.6097 954.235 73.6666 954.57 71.8951C954.992 69.9051 955.008 68.4498 954.618 67.5293C954.488 67.2224 952.812 67.7528 949.59 69.1204C946.521 70.4228 942.904 72.1391 938.739 74.2694C934.508 76.2462 930.464 78.2346 926.605 80.2346C922.9 82.1695 920.301 83.7253 918.809 84.9018C917.559 85.7948 916.462 86.6226 915.518 87.3853C914.509 87.9945 913.819 88.2876 913.447 88.2644C912.703 88.2181 911.217 87.4907 908.99 86.0824C906.851 84.4555 904.953 82.545 903.298 80.3508C901.796 78.0915 901.693 76.1434 902.99 74.5066C905.035 71.6468 907.341 69.4007 909.907 67.7682C912.626 66.0707 915.564 64.4614 918.721 62.9404C921.878 61.4194 925.276 59.6148 928.916 57.5265C932.445 56.0287 935.448 54.5728 937.926 53.1589C940.339 51.5916 941.852 50.6777 942.465 50.4172C944 49.766 945.71 48.6777 947.598 47.1523C949.639 45.5618 952.116 44.1479 955.031 42.9106C957.026 42.064 958.955 41.064 960.819 39.9106C962.618 38.6038 964.285 37.6247 965.819 36.9735C966.586 36.6479 968.427 35.8665 971.342 34.6291C974.257 33.3918 977.172 32.1545 980.087 30.9172C982.235 30.0055 985.019 28.4613 988.441 26.2847C991.863 24.1081 994.594 22.2246 996.634 20.6341C1003.04 16.1043 1008.77 13.3996 1013.83 12.5198C1018.89 11.6401 1022.83 13.0434 1025.67 16.7299C1027.71 19.8446 1026.73 23.7038 1022.71 28.3075C1018.68 32.9112 1010.01 38.4945 996.681 45.0574C990.345 48.4713 986.014 50.8527 983.69 52.2014C981.365 53.5502 980.496 54.915 981.082 56.2958C981.473 57.2163 981.448 58.2229 981.006 59.3156C980.653 60.1897 980.332 61.1406 980.044 62.1682C979.561 62.7355 979.194 64.4303 978.943 67.2525C978.628 69.9213 978.507 73.0504 978.583 76.6397C978.746 80.0105 978.888 83.1186 979.01 85.964C979.285 88.7443 979.585 90.518 979.911 91.2851C979.911 91.2851 979.832 91.9523 979.674 93.2867C979.604 94.4026 979.7 95.2673 979.96 95.881C979.998 97.6757 979.903 99.7981 979.676 102.248C979.602 104.634 979.507 106.756 979.391 108.616C979.694 115.729 979.861 121.453 979.889 125.786C980.072 130.054 980.158 133.457 980.149 135.996C980.229 138.316 980.288 140.373 980.325 142.168C980.558 144.423 980.993 148.221 981.631 153.563C982.269 158.906 982.603 163.743 982.632 168.076C982.32 169.476 981.956 170.536 981.537 171.257C981.207 171.759 981.303 172.624 981.824 173.851C981.889 174.005 982.015 175.581 982.201 178.579C982.476 181.36 982.672 184.807 982.789 188.922C982.906 193.037 983.023 197.151 983.14 201.266C983.346 205.162 983.4 208.489 983.303 211.246C983.424 214.091 983.331 215.579 983.025 215.709Z" fill="#505050" fill-opacity="0.18"/>
</svg>
